<svg xmlns="http://www.w3.org/2000/svg" width="1840" height="1120" viewBox="0 0 1840 1120"><rect x="0" y="0" width="1840" height="1120" fill="#0d0c0b"/><rect x="40" y="25" width="47" height="22" rx="7" fill="#242320"/><text x="49" y="41" font-family="JetBrains Mono" font-size="11" fill="#d7c19c">03a</text><text x="99" y="41" font-family="Archivo" font-size="15" fill="#f7f3ea" font-weight="700">Learn</text><text x="153.125" y="41" font-family="JetBrains Mono" font-size="11" fill="#98968d">desktop 1280 · competency-first · Learn + Knowledge merged</text><rect x="1400" y="25" width="47" height="22" rx="7" fill="#242320"/><text x="1409" y="41" font-family="JetBrains Mono" font-size="11" fill="#d7c19c">03b</text><text x="1459" y="41" font-family="Archivo" font-size="15" fill="#f7f3ea" font-weight="700">Learn</text><text x="1513.125" y="41" font-family="JetBrains Mono" font-size="11" fill="#98968d">mobile 375</text><rect x="32" y="58" width="1296" height="1006" rx="20" fill="#35342f" opacity="0.45"/><rect x="40" y="66" width="1280" height="990" rx="14" fill="#131211"/><g transform="translate(40,66)"><clipPath id="mg"><rect width="1280" height="990" rx="14"/></clipPath><g clip-path="url(#mg)"><rect x="0" y="0" width="96" height="990" fill="#131211"/><line x1="96" y1="0" x2="96" y2="990" stroke="#35342f" stroke-width="1"/><circle cx="48.0" cy="34" r="19.0" fill="#d7c19c"/><circle cx="48.0" cy="34" r="15.959999999999999" fill="none" stroke="#131211" stroke-width="1.387" opacity="0.28"/><path d="M43.25 26.28125L53.34375 34L43.25 41.71875" fill="none" stroke="#131211" stroke-width="4.0375" stroke-linecap="round" stroke-linejoin="round"/><text x="48.0" y="68" font-family="DM Serif Display" font-size="15" fill="#f7f3ea" text-anchor="middle">Cartableo</text><rect x="38.0775" y="100.0775" width="8.82" height="8.82" rx="2" fill="none" stroke="#98968d" stroke-width="2"/><rect x="38.0775" y="111.1025" width="8.82" height="8.82" rx="2" fill="none" stroke="#98968d" stroke-width="2"/><rect x="49.102500000000006" y="100.0775" width="8.82" height="8.82" rx="2" fill="none" stroke="#98968d" stroke-width="2"/><rect x="49.102500000000006" y="111.1025" width="8.82" height="8.82" rx="2" fill="none" stroke="#98968d" stroke-width="2"/><text x="48.0" y="134" font-family="JetBrains Mono" font-size="9" fill="#98968d" text-anchor="middle" letter-spacing="0.9">today</text><rect x="37.5" y="165.5" width="21" height="18" rx="2.5" fill="none" stroke="#98968d" stroke-width="2"/><line x1="37.5" y1="170.0" x2="58.5" y2="170.0" stroke="#98968d" stroke-width="2"/><line x1="41.5" y1="162.5" x2="41.5" y2="167.5" stroke="#98968d" stroke-width="2"/><line x1="54.5" y1="162.5" x2="54.5" y2="167.5" stroke="#98968d" stroke-width="2"/><text x="48.0" y="198" font-family="JetBrains Mono" font-size="9" fill="#98968d" text-anchor="middle" letter-spacing="0.9">board</text><rect x="12.0" y="216" width="72" height="60" rx="14" fill="#2a2620"/><path d="M37.5 228.5h8.5a3 3 0 0 1 3 3v17a3 3 0 0 0-3-3h-8.5z" fill="none" stroke="#d7c19c" stroke-width="2" stroke-linecap="round" stroke-linejoin="round"/><path d="M58.5 228.5h-8.5a3 3 0 0 0-3 3v17a3 3 0 0 1 3-3h8.5z" fill="none" stroke="#d7c19c" stroke-width="2" stroke-linecap="round" stroke-linejoin="round"/><text x="48.0" y="262" font-family="JetBrains Mono" font-size="9" fill="#d7c19c" text-anchor="middle" letter-spacing="0.9">learn</text><path d="M37.5 311.5v-18l7.0 -2.5 7.0 2.5 7.0 -2.5v18l-7.0 2.5 -7.0 -2.5z" fill="none" stroke="#98968d" stroke-width="2" stroke-linecap="round" stroke-linejoin="round"/><text x="48.0" y="326" font-family="JetBrains Mono" font-size="9" fill="#98968d" text-anchor="middle" letter-spacing="0.9">progress</text><circle cx="48.0" cy="938" r="8.5" fill="none" stroke="#98968d" stroke-width="2"/><circle cx="48.0" cy="938" r="2.6" fill="#98968d"/><text x="48.0" y="962" font-family="JetBrains Mono" font-size="9" fill="#98968d" text-anchor="middle" letter-spacing="0.9">settings</text><text x="136" y="64" font-family="Archivo" font-size="26" fill="#f7f3ea" font-weight="700">Learn</text><text x="136" y="82.0" font-family="Archivo" font-size="14" fill="#98968d">Everything for a competency in one place — what to read and what to do, ordered, with progress. Learn and Knowledge, merged.</text><rect x="136" y="118" width="894" height="44" rx="12" fill="#1d1c19" stroke="#35342f" stroke-width="1"/><circle cx="158" cy="139" r="6" fill="none" stroke="#98968d" stroke-width="2"/><text x="176" y="145" font-family="Archivo" font-size="15" fill="#98968d">Search</text><rect x="1044" y="118" width="196" height="44" rx="12" fill="#242320"/><rect x="1048" y="122" width="110" height="36" rx="9" fill="#d7c19c"/><text x="1103" y="145" font-family="Archivo" font-size="13" fill="#131211" font-weight="700" text-anchor="middle">by competency</text><text x="1185" y="145" font-family="Archivo" font-size="13" fill="#98968d" text-anchor="middle">browse</text><text x="136" y="178" font-family="JetBrains Mono" font-size="10" fill="#98968d" letter-spacing="1.0">LOW-LEVEL &amp; C</text><rect x="136" y="192" width="1104" height="60" rx="14" fill="#1d1c19" stroke="#35342f" stroke-width="1"/><rect x="136" y="192" width="3" height="60" fill="#35342f"/><rect x="136" y="192" width="3" height="48.0" fill="#d7c19c"/><text x="154" y="218" font-family="Archivo" font-size="15" fill="#f7f3ea" font-weight="700">C fundamentals</text><rect x="1194.0" y="204" width="30.0" height="22" rx="8" fill="#2a2620"/><text x="1203.0" y="219" font-family="JetBrains Mono" font-size="10" fill="#d7c19c">L3</text><text x="154" y="238" font-family="JetBrains Mono" font-size="10" fill="#98968d" letter-spacing="1.0">READ</text><rect x="196" y="229" width="38.0" height="22" rx="9" fill="#2a2620"/><text x="206" y="243.6" font-family="JetBrains Mono" font-size="10" fill="#d7c19c">4/6</text><text x="248.0" y="238" font-family="JetBrains Mono" font-size="10" fill="#98968d" letter-spacing="1.0">DO</text><rect x="274.0" y="229" width="38.0" height="22" rx="9" fill="#1e2a23"/><text x="284.0" y="243.6" font-family="JetBrains Mono" font-size="10" fill="#57b37f">4/4</text><rect x="136" y="260" width="1104" height="60" rx="14" fill="#1d1c19" stroke="#35342f" stroke-width="1"/><rect x="136" y="260" width="3" height="60" fill="#35342f"/><rect x="136" y="260" width="3" height="22.857142857142854" fill="#d7c19c"/><text x="154" y="286" font-family="Archivo" font-size="15" fill="#f7f3ea" font-weight="700">Systems programming in C</text><rect x="1194.0" y="272" width="30.0" height="22" rx="8" fill="#2a2620"/><text x="1203.0" y="287" font-family="JetBrains Mono" font-size="10" fill="#d7c19c">L2</text><text x="154" y="306" font-family="JetBrains Mono" font-size="10" fill="#98968d" letter-spacing="1.0">READ</text><rect x="196" y="297" width="38.0" height="22" rx="9" fill="#2a2620"/><text x="206" y="311.6" font-family="JetBrains Mono" font-size="10" fill="#d7c19c">3/6</text><text x="248.0" y="306" font-family="JetBrains Mono" font-size="10" fill="#98968d" letter-spacing="1.0">DO</text><rect x="274.0" y="297" width="44.0" height="22" rx="9" fill="#2a2620"/><text x="284.0" y="311.6" font-family="JetBrains Mono" font-size="10" fill="#d7c19c">5/15</text><rect x="136" y="328" width="1104" height="60" rx="14" fill="#1d1c19" stroke="#35342f" stroke-width="1"/><rect x="136" y="328" width="3" height="60" fill="#35342f"/><rect x="136" y="328" width="3" height="18.0" fill="#d7c19c"/><text x="154" y="354" font-family="Archivo" font-size="15" fill="#f7f3ea" font-weight="700">C++ &amp; OOP</text><rect x="1194.0" y="340" width="30.0" height="22" rx="8" fill="#2a2620"/><text x="1203.0" y="355" font-family="JetBrains Mono" font-size="10" fill="#d7c19c">L1</text><text x="154" y="374" font-family="JetBrains Mono" font-size="10" fill="#98968d" letter-spacing="1.0">READ</text><rect x="196" y="365" width="38.0" height="22" rx="9" fill="#2a2620"/><text x="206" y="379.6" font-family="JetBrains Mono" font-size="10" fill="#d7c19c">2/6</text><text x="248.0" y="374" font-family="JetBrains Mono" font-size="10" fill="#98968d" letter-spacing="1.0">DO</text><rect x="274.0" y="365" width="38.0" height="22" rx="9" fill="#2a2620"/><text x="284.0" y="379.6" font-family="JetBrains Mono" font-size="10" fill="#d7c19c">1/4</text><text x="136" y="396" font-family="JetBrains Mono" font-size="10" fill="#98968d" letter-spacing="1.0">NETWORKING</text><rect x="136" y="410" width="1104" height="60" rx="14" fill="#1d1c19" stroke="#35342f" stroke-width="1"/><rect x="136" y="410" width="3" height="60" fill="#35342f"/><rect x="136" y="410" width="3" height="31.200000000000003" fill="#d7c19c"/><text x="154" y="436" font-family="Archivo" font-size="15" fill="#f7f3ea" font-weight="700">Networking fundamentals</text><rect x="1194.0" y="422" width="30.0" height="22" rx="8" fill="#2a2620"/><text x="1203.0" y="437" font-family="JetBrains Mono" font-size="10" fill="#d7c19c">L3</text><text x="154" y="456" font-family="JetBrains Mono" font-size="10" fill="#98968d" letter-spacing="1.0">READ</text><rect x="196" y="447" width="38.0" height="22" rx="9" fill="#1e2a23"/><text x="206" y="461.6" font-family="JetBrains Mono" font-size="10" fill="#57b37f">6/6</text><text x="248.0" y="456" font-family="JetBrains Mono" font-size="10" fill="#98968d" letter-spacing="1.0">DO</text><rect x="274.0" y="447" width="44.0" height="22" rx="9" fill="#2a2620"/><text x="284.0" y="461.6" font-family="JetBrains Mono" font-size="10" fill="#d7c19c">7/19</text><text x="136" y="478" font-family="JetBrains Mono" font-size="10" fill="#98968d" letter-spacing="1.0">WEB</text><rect x="136" y="492" width="1104" height="60" rx="14" fill="#1d1c19" stroke="#35342f" stroke-width="1"/><rect x="136" y="492" width="3" height="60" fill="#35342f"/><rect x="136" y="492" width="3" height="9.0" fill="#d7c19c"/><text x="154" y="518" font-family="Archivo" font-size="15" fill="#f7f3ea" font-weight="700">Web application security</text><rect x="1194.0" y="504" width="30.0" height="22" rx="8" fill="#2a2620"/><text x="1203.0" y="519" font-family="JetBrains Mono" font-size="10" fill="#d7c19c">L2</text><text x="154" y="538" font-family="JetBrains Mono" font-size="10" fill="#98968d" letter-spacing="1.0">READ</text><rect x="196" y="529" width="38.0" height="22" rx="9" fill="#2a2620"/><text x="206" y="543.6" font-family="JetBrains Mono" font-size="10" fill="#d7c19c">3/6</text><text x="248.0" y="538" font-family="JetBrains Mono" font-size="10" fill="#98968d" letter-spacing="1.0">DO</text><rect x="274.0" y="529" width="44.0" height="22" rx="9" fill="#2a2620"/><text x="284.0" y="543.6" font-family="JetBrains Mono" font-size="10" fill="#d7c19c">6/54</text><text x="136" y="560" font-family="JetBrains Mono" font-size="10" fill="#98968d" letter-spacing="1.0">ACTIVE DIRECTORY</text><rect x="136" y="574" width="1104" height="60" rx="14" fill="#1d1c19" stroke="#d7c19c" stroke-width="1.5"/><rect x="136" y="574" width="3" height="60" fill="#35342f"/><rect x="136" y="574" width="3" height="8.571428571428571" fill="#d7c19c"/><text x="154" y="600" font-family="Archivo" font-size="15" fill="#f7f3ea" font-weight="700">Active Directory attacks</text><rect x="1194.0" y="586" width="30.0" height="22" rx="8" fill="#2a2620"/><text x="1203.0" y="601" font-family="JetBrains Mono" font-size="10" fill="#d7c19c">L1</text><text x="154" y="620" font-family="JetBrains Mono" font-size="10" fill="#98968d" letter-spacing="1.0">READ</text><rect x="196" y="611" width="38.0" height="22" rx="9" fill="#2a2620"/><text x="206" y="625.6" font-family="JetBrains Mono" font-size="10" fill="#d7c19c">1/6</text><text x="248.0" y="620" font-family="JetBrains Mono" font-size="10" fill="#98968d" letter-spacing="1.0">DO</text><rect x="274.0" y="611" width="38.0" height="22" rx="9" fill="#2a2620"/><text x="284.0" y="625.6" font-family="JetBrains Mono" font-size="10" fill="#d7c19c">1/8</text><rect x="136" y="642" width="1104" height="300" rx="16" fill="#1d1c19" stroke="#35342f" stroke-width="1"/><text x="154" y="672" font-family="Archivo" font-size="17" fill="#f7f3ea" font-weight="700">Active Directory attacks</text><rect x="1178" y="658" width="32.0" height="22" rx="9" fill="#2a2620"/><text x="1188" y="672.6" font-family="JetBrains Mono" font-size="10" fill="#d7c19c">L1</text><text x="154" y="700" font-family="JetBrains Mono" font-size="10" fill="#98968d" letter-spacing="1.0">UNDERSTAND</text><rect x="154" y="710" width="34" height="26" rx="8" fill="#2a2620"/><text x="162" y="727" font-family="JetBrains Mono" font-size="10" fill="#d7c19c">L0</text><circle cx="182" cy="714" r="4" fill="#57b37f"/><rect x="194" y="710" width="34" height="26" rx="8" fill="#2a2620"/><text x="202" y="727" font-family="JetBrains Mono" font-size="10" fill="#d7c19c">L1</text><circle cx="222" cy="714" r="4" fill="#57b37f"/><rect x="234" y="710" width="34" height="26" rx="8" fill="#242320"/><text x="242" y="727" font-family="JetBrains Mono" font-size="10" fill="#c2c0b8">L2</text><rect x="274" y="710" width="34" height="26" rx="8" fill="#242320"/><text x="282" y="727" font-family="JetBrains Mono" font-size="10" fill="#c2c0b8">L3</text><rect x="314" y="710" width="34" height="26" rx="8" fill="#242320"/><text x="322" y="727" font-family="JetBrains Mono" font-size="10" fill="#c2c0b8">L4</text><rect x="354" y="710" width="34" height="26" rx="8" fill="#242320"/><text x="362" y="727" font-family="JetBrains Mono" font-size="10" fill="#c2c0b8">L5</text><text x="154" y="760" font-family="JetBrains Mono" font-size="10" fill="#98968d" letter-spacing="1.0">DO  ·  ORDERED BY DIFFICULTY</text><rect x="154" y="772" width="1068" height="30" rx="8" fill="#1e2a23"/><circle cx="170" cy="787" r="7" fill="#57b37f"/><path d="M167 787l2 2 4-4.5" fill="none" stroke="#131211" stroke-width="1.8" stroke-linecap="round" stroke-linejoin="round"/><text x="186" y="792" font-family="Archivo" font-size="13" fill="#98968d">Linux Fundamentals</text><rect x="1090" y="776" width="63.199999999999996" height="21" rx="9" fill="#1e2a23"/><text x="1100" y="789.74" font-family="JetBrains Mono" font-size="9" fill="#57b37f">beginner</text><rect x="1182" y="776" width="36.2" height="21" rx="9" fill="#242320"/><text x="1192" y="789.74" font-family="JetBrains Mono" font-size="9" fill="#c2c0b8">htb</text><rect x="154" y="808" width="1068" height="30" rx="8" fill="#1e2a23"/><circle cx="170" cy="823" r="7" fill="#57b37f"/><path d="M167 823l2 2 4-4.5" fill="none" stroke="#131211" stroke-width="1.8" stroke-linecap="round" stroke-linejoin="round"/><text x="186" y="828" font-family="Archivo" font-size="13" fill="#98968d">Nmap Live Host Discovery</text><rect x="1090" y="812" width="63.199999999999996" height="21" rx="9" fill="#1e2a23"/><text x="1100" y="825.74" font-family="JetBrains Mono" font-size="9" fill="#57b37f">beginner</text><rect x="1182" y="812" width="36.2" height="21" rx="9" fill="#242320"/><text x="1192" y="825.74" font-family="JetBrains Mono" font-size="9" fill="#c2c0b8">thm</text><rect x="154" y="844" width="1068" height="30" rx="8" fill="#242320"/><circle cx="170" cy="859" r="7" fill="none" stroke="#35342f" stroke-width="1.5"/><text x="186" y="864" font-family="Archivo" font-size="13" fill="#c2c0b8">Network Enumeration with Nmap</text><rect x="1090" y="848" width="84.8" height="21" rx="9" fill="#242320"/><text x="1100" y="861.74" font-family="JetBrains Mono" font-size="9" fill="#c2c0b8">intermediate</text><rect x="1182" y="848" width="36.2" height="21" rx="9" fill="#242320"/><text x="1192" y="861.74" font-family="JetBrains Mono" font-size="9" fill="#c2c0b8">htb</text><rect x="154" y="880" width="1068" height="30" rx="8" fill="#242320"/><circle cx="170" cy="895" r="7" fill="none" stroke="#35342f" stroke-width="1.5"/><text x="186" y="900" font-family="Archivo" font-size="13" fill="#c2c0b8">ETHERNET - Frame analysis</text><rect x="1090" y="884" width="84.8" height="21" rx="9" fill="#242320"/><text x="1100" y="897.74" font-family="JetBrains Mono" font-size="9" fill="#c2c0b8">intermediate</text><rect x="1182" y="884" width="52.4" height="21" rx="9" fill="#242320"/><text x="1192" y="897.74" font-family="JetBrains Mono" font-size="9" fill="#c2c0b8">rootme</text><rect x="154" y="916" width="1068" height="30" rx="8" fill="#242320"/><circle cx="170" cy="931" r="7" fill="none" stroke="#35342f" stroke-width="1.5"/><text x="186" y="936" font-family="Archivo" font-size="13" fill="#c2c0b8">Footprinting</text><rect x="1090" y="920" width="63.199999999999996" height="21" rx="9" fill="#2b2218"/><text x="1100" y="933.74" font-family="JetBrains Mono" font-size="9" fill="#e08a3c">advanced</text><rect x="1182" y="920" width="36.2" height="21" rx="9" fill="#242320"/><text x="1192" y="933.74" font-family="JetBrains Mono" font-size="9" fill="#c2c0b8">htb</text></g></g><rect x="1390" y="56" width="395" height="780" rx="32" fill="#35342f" opacity="0.5"/><rect x="1400" y="66" width="375" height="760" rx="24" fill="#131211"/><text x="1420" y="92" font-family="JetBrains Mono" font-size="12" fill="#f7f3ea">9:41</text><rect x="1729" y="82" width="26" height="13" rx="3.5" fill="none" stroke="#98968d" stroke-width="1.2"/><rect x="1731" y="84" width="18" height="9" rx="2" fill="#98968d"/><g transform="translate(1400,110)"><clipPath id="mgm"><rect width="375" height="716"/></clipPath><g clip-path="url(#mgm)"><text x="20" y="44" font-family="Archivo" font-size="26" fill="#f7f3ea" font-weight="700">Learn</text><text x="20" y="62.0" font-family="Archivo" font-size="14" fill="#98968d">Everything for a competency in one place — what</text><text x="20" y="83.7" font-family="Archivo" font-size="14" fill="#98968d">to read and what to do, ordered, with progress.</text><text x="20" y="105.4" font-family="Archivo" font-size="14" fill="#98968d">Learn and Knowledge, merged.</text><rect x="20" y="98" width="335" height="44" rx="12" fill="#1d1c19" stroke="#35342f" stroke-width="1"/><circle cx="42" cy="119" r="6" fill="none" stroke="#98968d" stroke-width="2"/><text x="60" y="125" font-family="Archivo" font-size="15" fill="#98968d">Search</text><text x="20" y="158" font-family="JetBrains Mono" font-size="10" fill="#98968d" letter-spacing="1.0">LOW-LEVEL &amp; C</text><rect x="20" y="172" width="335" height="60" rx="14" fill="#1d1c19" stroke="#35342f" stroke-width="1"/><rect x="20" y="172" width="3" height="60" fill="#35342f"/><rect x="20" y="172" width="3" height="48.0" fill="#d7c19c"/><text x="38" y="198" font-family="Archivo" font-size="15" fill="#f7f3ea" font-weight="700">C fundamentals</text><rect x="309.0" y="184" width="30.0" height="22" rx="8" fill="#2a2620"/><text x="318.0" y="199" font-family="JetBrains Mono" font-size="10" fill="#d7c19c">L3</text><text x="38" y="218" font-family="JetBrains Mono" font-size="10" fill="#98968d" letter-spacing="1.0">READ</text><rect x="80" y="209" width="38.0" height="22" rx="9" fill="#2a2620"/><text x="90" y="223.6" font-family="JetBrains Mono" font-size="10" fill="#d7c19c">4/6</text><text x="132.0" y="218" font-family="JetBrains Mono" font-size="10" fill="#98968d" letter-spacing="1.0">DO</text><rect x="158.0" y="209" width="38.0" height="22" rx="9" fill="#1e2a23"/><text x="168.0" y="223.6" font-family="JetBrains Mono" font-size="10" fill="#57b37f">4/4</text><rect x="20" y="240" width="335" height="60" rx="14" fill="#1d1c19" stroke="#35342f" stroke-width="1"/><rect x="20" y="240" width="3" height="60" fill="#35342f"/><rect x="20" y="240" width="3" height="22.857142857142854" fill="#d7c19c"/><text x="38" y="266" font-family="Archivo" font-size="15" fill="#f7f3ea" font-weight="700">Systems programming in C</text><rect x="309.0" y="252" width="30.0" height="22" rx="8" fill="#2a2620"/><text x="318.0" y="267" font-family="JetBrains Mono" font-size="10" fill="#d7c19c">L2</text><text x="38" y="286" font-family="JetBrains Mono" font-size="10" fill="#98968d" letter-spacing="1.0">READ</text><rect x="80" y="277" width="38.0" height="22" rx="9" fill="#2a2620"/><text x="90" y="291.6" font-family="JetBrains Mono" font-size="10" fill="#d7c19c">3/6</text><text x="132.0" y="286" font-family="JetBrains Mono" font-size="10" fill="#98968d" letter-spacing="1.0">DO</text><rect x="158.0" y="277" width="44.0" height="22" rx="9" fill="#2a2620"/><text x="168.0" y="291.6" font-family="JetBrains Mono" font-size="10" fill="#d7c19c">5/15</text><rect x="20" y="308" width="335" height="60" rx="14" fill="#1d1c19" stroke="#35342f" stroke-width="1"/><rect x="20" y="308" width="3" height="60" fill="#35342f"/><rect x="20" y="308" width="3" height="18.0" fill="#d7c19c"/><text x="38" y="334" font-family="Archivo" font-size="15" fill="#f7f3ea" font-weight="700">C++ &amp; OOP</text><rect x="309.0" y="320" width="30.0" height="22" rx="8" fill="#2a2620"/><text x="318.0" y="335" font-family="JetBrains Mono" font-size="10" fill="#d7c19c">L1</text><text x="38" y="354" font-family="JetBrains Mono" font-size="10" fill="#98968d" letter-spacing="1.0">READ</text><rect x="80" y="345" width="38.0" height="22" rx="9" fill="#2a2620"/><text x="90" y="359.6" font-family="JetBrains Mono" font-size="10" fill="#d7c19c">2/6</text><text x="132.0" y="354" font-family="JetBrains Mono" font-size="10" fill="#98968d" letter-spacing="1.0">DO</text><rect x="158.0" y="345" width="38.0" height="22" rx="9" fill="#2a2620"/><text x="168.0" y="359.6" font-family="JetBrains Mono" font-size="10" fill="#d7c19c">1/4</text><text x="20" y="376" font-family="JetBrains Mono" font-size="10" fill="#98968d" letter-spacing="1.0">NETWORKING</text><rect x="20" y="390" width="335" height="60" rx="14" fill="#1d1c19" stroke="#35342f" stroke-width="1"/><rect x="20" y="390" width="3" height="60" fill="#35342f"/><rect x="20" y="390" width="3" height="31.200000000000003" fill="#d7c19c"/><text x="38" y="416" font-family="Archivo" font-size="15" fill="#f7f3ea" font-weight="700">Networking fundamentals</text><rect x="309.0" y="402" width="30.0" height="22" rx="8" fill="#2a2620"/><text x="318.0" y="417" font-family="JetBrains Mono" font-size="10" fill="#d7c19c">L3</text><text x="38" y="436" font-family="JetBrains Mono" font-size="10" fill="#98968d" letter-spacing="1.0">READ</text><rect x="80" y="427" width="38.0" height="22" rx="9" fill="#1e2a23"/><text x="90" y="441.6" font-family="JetBrains Mono" font-size="10" fill="#57b37f">6/6</text><text x="132.0" y="436" font-family="JetBrains Mono" font-size="10" fill="#98968d" letter-spacing="1.0">DO</text><rect x="158.0" y="427" width="44.0" height="22" rx="9" fill="#2a2620"/><text x="168.0" y="441.6" font-family="JetBrains Mono" font-size="10" fill="#d7c19c">7/19</text><text x="20" y="458" font-family="JetBrains Mono" font-size="10" fill="#98968d" letter-spacing="1.0">WEB</text><rect x="20" y="472" width="335" height="60" rx="14" fill="#1d1c19" stroke="#35342f" stroke-width="1"/><rect x="20" y="472" width="3" height="60" fill="#35342f"/><rect x="20" y="472" width="3" height="9.0" fill="#d7c19c"/><text x="38" y="498" font-family="Archivo" font-size="15" fill="#f7f3ea" font-weight="700">Web application security</text><rect x="309.0" y="484" width="30.0" height="22" rx="8" fill="#2a2620"/><text x="318.0" y="499" font-family="JetBrains Mono" font-size="10" fill="#d7c19c">L2</text><text x="38" y="518" font-family="JetBrains Mono" font-size="10" fill="#98968d" letter-spacing="1.0">READ</text><rect x="80" y="509" width="38.0" height="22" rx="9" fill="#2a2620"/><text x="90" y="523.6" font-family="JetBrains Mono" font-size="10" fill="#d7c19c">3/6</text><text x="132.0" y="518" font-family="JetBrains Mono" font-size="10" fill="#98968d" letter-spacing="1.0">DO</text><rect x="158.0" y="509" width="44.0" height="22" rx="9" fill="#2a2620"/><text x="168.0" y="523.6" font-family="JetBrains Mono" font-size="10" fill="#d7c19c">6/54</text><text x="20" y="540" font-family="JetBrains Mono" font-size="10" fill="#98968d" letter-spacing="1.0">ACTIVE DIRECTORY</text><rect x="20" y="554" width="335" height="60" rx="14" fill="#1d1c19" stroke="#d7c19c" stroke-width="1.5"/><rect x="20" y="554" width="3" height="60" fill="#35342f"/><rect x="20" y="554" width="3" height="8.571428571428571" fill="#d7c19c"/><text x="38" y="580" font-family="Archivo" font-size="15" fill="#f7f3ea" font-weight="700">Active Directory attacks</text><rect x="309.0" y="566" width="30.0" height="22" rx="8" fill="#2a2620"/><text x="318.0" y="581" font-family="JetBrains Mono" font-size="10" fill="#d7c19c">L1</text><text x="38" y="600" font-family="JetBrains Mono" font-size="10" fill="#98968d" letter-spacing="1.0">READ</text><rect x="80" y="591" width="38.0" height="22" rx="9" fill="#2a2620"/><text x="90" y="605.6" font-family="JetBrains Mono" font-size="10" fill="#d7c19c">1/6</text><text x="132.0" y="600" font-family="JetBrains Mono" font-size="10" fill="#98968d" letter-spacing="1.0">DO</text><rect x="158.0" y="591" width="38.0" height="22" rx="9" fill="#2a2620"/><text x="168.0" y="605.6" font-family="JetBrains Mono" font-size="10" fill="#d7c19c">1/8</text><rect x="0" y="642" width="375" height="74" fill="#131211"/><line x1="0" y1="642" x2="375" y2="642" stroke="#35342f" stroke-width="1"/><rect x="28.05" y="650.55" width="8.4" height="8.4" rx="2" fill="none" stroke="#98968d" stroke-width="2"/><rect x="28.05" y="661.05" width="8.4" height="8.4" rx="2" fill="none" stroke="#98968d" stroke-width="2"/><rect x="38.55" y="650.55" width="8.4" height="8.4" rx="2" fill="none" stroke="#98968d" stroke-width="2"/><rect x="38.55" y="661.05" width="8.4" height="8.4" rx="2" fill="none" stroke="#98968d" stroke-width="2"/><text x="37.5" y="680" font-family="JetBrains Mono" font-size="9" fill="#98968d" text-anchor="middle" letter-spacing="0.9">today</text><rect x="102.5" y="652.0" width="20" height="17" rx="2.5" fill="none" stroke="#98968d" stroke-width="2"/><line x1="102.5" y1="656.5" x2="122.5" y2="656.5" stroke="#98968d" stroke-width="2"/><line x1="106.5" y1="649.0" x2="106.5" y2="654.0" stroke="#98968d" stroke-width="2"/><line x1="118.5" y1="649.0" x2="118.5" y2="654.0" stroke="#98968d" stroke-width="2"/><text x="112.5" y="680" font-family="JetBrains Mono" font-size="9" fill="#98968d" text-anchor="middle" letter-spacing="0.9">board</text><path d="M177.5 651.0h8.0a3 3 0 0 1 3 3v16a3 3 0 0 0-3-3h-8.0z" fill="none" stroke="#d7c19c" stroke-width="2" stroke-linecap="round" stroke-linejoin="round"/><path d="M197.5 651.0h-8.0a3 3 0 0 0-3 3v16a3 3 0 0 1 3-3h8.0z" fill="none" stroke="#d7c19c" stroke-width="2" stroke-linecap="round" stroke-linejoin="round"/><text x="187.5" y="680" font-family="JetBrains Mono" font-size="9" fill="#d7c19c" text-anchor="middle" letter-spacing="0.9">learn</text><path d="M252.5 669.0v-17l6.666666666666667 -2.5 6.666666666666667 2.5 6.666666666666667 -2.5v17l-6.666666666666667 2.5 -6.666666666666667 -2.5z" fill="none" stroke="#98968d" stroke-width="2" stroke-linecap="round" stroke-linejoin="round"/><text x="262.5" y="680" font-family="JetBrains Mono" font-size="9" fill="#98968d" text-anchor="middle" letter-spacing="0.9">progress</text><rect x="127.5" y="702" width="120" height="4" rx="2" fill="#35342f"/></g></g></svg>